<svg width="20" height="20" viewBox="0 0 20 20" fill="none" xmlns="http://www.w3.org/2000/svg">
<path d="M19.1425 13.7038L14.3219 11.5436C14.1035 11.45 13.8652 11.4123 13.6286 11.4341C13.3919 11.4558 13.1645 11.5362 12.9668 11.6681C12.9467 11.6809 12.9276 11.6953 12.9096 11.7109L10.3902 13.8538C10.364 13.8681 10.3349 13.8761 10.3052 13.8771C10.2754 13.8782 10.2458 13.8723 10.2187 13.86C8.59928 13.0783 6.92167 11.4109 6.13695 9.8139C6.12389 9.78722 6.11709 9.7579 6.11709 9.72819C6.11709 9.69847 6.12389 9.66916 6.13695 9.64247L8.28702 7.09136C8.30245 7.07248 8.31676 7.05272 8.32988 7.03217C8.45988 6.8337 8.53839 6.60598 8.55835 6.36956C8.5783 6.13315 8.53906 5.89549 8.44417 5.67804L6.2992 0.865619C6.17739 0.581537 5.96673 0.344623 5.69884 0.190437C5.43094 0.0362499 5.12027 -0.0268925 4.81344 0.0104861C3.47995 0.185795 2.25592 0.840657 1.37008 1.8527C0.484244 2.86474 -0.00278344 4.1647 1.19671e-05 5.50967C1.19671e-05 13.4998 6.50023 20 14.4903 20C15.8352 20.0026 17.135 19.5155 18.147 18.6297C19.159 17.7439 19.8139 16.52 19.9895 15.1865C20.0268 14.8812 19.9645 14.5719 19.8119 14.3047C19.6593 14.0376 19.4245 13.8268 19.1425 13.7038ZM14.4903 18.7755C7.17576 18.7755 1.22454 12.8242 1.22454 5.50967C1.22113 4.46262 1.59905 3.45014 2.28769 2.66141C2.97632 1.87268 3.92857 1.36165 4.96651 1.2238H4.98998C5.0311 1.22456 5.07103 1.23774 5.10453 1.26159C5.13804 1.28545 5.16355 1.31887 5.17774 1.35747L7.33087 6.16479C7.34315 6.19152 7.34951 6.22059 7.34951 6.25C7.34951 6.27941 7.34315 6.30848 7.33087 6.33521L5.17672 8.89244C5.16065 8.9107 5.14598 8.93014 5.13284 8.95061C4.99804 9.15639 4.91867 9.39349 4.9024 9.63895C4.88613 9.88441 4.93352 10.1299 5.03998 10.3517C5.94511 12.2048 7.81252 14.0579 9.68605 14.9631C9.90912 15.0689 10.1558 15.1152 10.4021 15.0973C10.6483 15.0794 10.8858 14.998 11.0912 14.861C11.1106 14.8478 11.13 14.8335 11.1483 14.8182L13.6668 12.6752C13.6917 12.6619 13.7191 12.654 13.7473 12.6523C13.7755 12.6505 13.8037 12.6549 13.8301 12.665L18.6517 14.8253C18.691 14.8421 18.7242 14.8708 18.7463 14.9074C18.7685 14.9441 18.7786 14.9867 18.7751 15.0294C18.638 16.0678 18.1275 17.0208 17.3389 17.7102C16.5503 18.3996 15.5377 18.7783 14.4903 18.7755Z" fill="#1B1B1B"/>
</svg>
