<svg width="20" height="18" viewBox="0 0 20 18" fill="none" xmlns="http://www.w3.org/2000/svg">
<path d="M6.89257 0.00224931L6.94478 0L6.99589 0.00112479C7.02118 0.00255324 7.04639 0.00518015 7.07144 0.00899696L7.08921 0.0134956C7.18742 0.0299358 7.28166 0.0650414 7.36696 0.116959L7.42584 0.155195L13.0585 4.1644L18.6879 0.159693C18.8047 0.0766148 18.9407 0.0253055 19.0827 0.0106851C19.2247 -0.0039353 19.368 0.018624 19.499 0.0761995C19.6299 0.133775 19.744 0.224436 19.8304 0.339488C19.9168 0.45454 19.9725 0.590125 19.9922 0.73324L20 0.850199V12.807C20 12.9225 19.9765 13.0369 19.931 13.1429C19.8855 13.2489 19.819 13.3443 19.7356 13.4232L19.6467 13.4975L13.5363 17.8452C13.4027 17.9413 13.244 17.9951 13.0802 17.9997C12.9164 18.0043 12.755 17.9595 12.6164 17.871L6.94478 13.8315L1.31208 17.8407C1.19528 17.9238 1.05935 17.9751 0.917327 17.9897C0.775307 18.0043 0.631957 17.9817 0.501025 17.9242C0.370093 17.8666 0.255969 17.7759 0.169598 17.6609C0.0832273 17.5458 0.0275058 17.4102 0.00777688 17.2671L0 17.1502V5.19341C7.22311e-06 5.07783 0.0234821 4.96348 0.0689676 4.85747C0.114453 4.75145 0.180979 4.65603 0.264415 4.57713L0.353294 4.5029L6.46373 0.155195C6.53186 0.106458 6.60673 0.0681823 6.68592 0.0416102L6.82258 0.0101215L6.89257 0.00224931ZM18.3335 2.473L13.8896 5.63538V15.5307L18.3335 12.3684V2.473ZM6.11154 2.4685L1.66759 5.63088V15.5274L6.11154 12.3639V2.4685ZM7.78025 2.4685V12.365L12.2242 15.5262V5.63088L7.78025 2.4685Z" fill="#1B1B1B"/>
</svg>
